<svg width="800px" height="800px" viewBox="0 0 24 24" xmlns="http://www.w3.org/2000/svg" fill="none">
  <path
    fill="#000000"
    fill-rule="evenodd"
    clip-rule="evenodd"
    d="M21.582 7.19a2.72 2.72 0 0 0-1.916-1.926C17.976 4.81 12 4.81 12 4.81s-5.976 0-7.666.454A2.72 2.72 0 0 0 2.418 7.19C1.965 8.89 1.965 12.43 1.965 12.43s0 3.54.453 5.24a2.72 2.72 0 0 0 1.916 1.926C6.024 20.05 12 20.05 12 20.05s5.976 0 7.666-.454a2.72 2.72 0 0 0 1.916-1.926c.453-1.7.453-5.24.453-5.24s0-3.54-.453-5.24ZM10.004 15.638V9.222l5.21 3.208-5.21 3.208Z"
  />
</svg>
